<svg width="17" height="17" viewBox="0 0 17 17" fill="none" xmlns="http://www.w3.org/2000/svg">
<path d="M12.6667 4.33333H14.3333C14.7754 4.33333 15.1993 4.50893 15.5118 4.82149C15.8244 5.13405 16 5.55797 16 6V11C16 11.442 15.8244 11.866 15.5118 12.1785C15.1993 12.4911 14.7754 12.6667 14.3333 12.6667H12.6667V16L9.33333 12.6667H6C5.78111 12.6669 5.56433 12.6239 5.36211 12.5401C5.1599 12.4563 4.97623 12.3333 4.82167 12.1783M4.82167 12.1783L7.66667 9.33333H11C11.442 9.33333 11.866 9.15774 12.1785 8.84518C12.4911 8.53262 12.6667 8.10869 12.6667 7.66667V2.66667C12.6667 2.22464 12.4911 1.80072 12.1785 1.48816C11.866 1.17559 11.442 1 11 1H2.66667C2.22464 1 1.80072 1.17559 1.48816 1.48816C1.17559 1.80072 1 2.22464 1 2.66667V7.66667C1 8.10869 1.17559 8.53262 1.48816 8.84518C1.80072 9.15774 2.22464 9.33333 2.66667 9.33333H4.33333V12.6667L4.82167 12.1783Z" stroke="#B2B2B2" stroke-width="2" stroke-linecap="round" stroke-linejoin="round"/>
</svg>
