<?xml version="1.0" encoding="UTF-8"?>
<svg xmlns="http://www.w3.org/2000/svg" xmlns:xlink="http://www.w3.org/1999/xlink" width="0" height="0">
<symbol id="fr-France" width="12" height="12" viewBox="0 0 12 12" fill="none">
<g clip-path="url(#clip0_112_163)">
<path d="M0 0H4V12H0V0Z" fill="#3B82F6"/>
<path d="M4 0H8V12H4V0Z" fill="#F5F5F5"/>
<path d="M8 0H12V12H8V0Z" fill="#EF4444"/>
</g>
<defs>
<clipPath>
<rect width="12" height="12" rx="2.66667" fill="white"/>
</clipPath>
</defs>
</symbol>

<symbol id="Rounded" width="12" height="12" viewBox="0 0 12 12" fill="none">
<g clip-path="url(#clip0_196_862)">
<path d="M0 0H12V3H0V0Z" fill="#EF4444"/>
<path d="M0 3H12V6H0V3Z" fill="#FBBF24"/>
<path d="M0 6H12V9H0V6Z" fill="#FBBF24"/>
<path d="M0 9H12V12H0V9Z" fill="#EF4444"/>
<path d="M5.65591 3.7677C5.64608 3.75623 5.63531 3.74464 5.62383 3.73316C5.49962 3.60872 5.33397 3.54012 5.15789 3.54012C5.09456 3.54012 5.03216 3.54925 4.97187 3.56704C4.94576 3.5592 4.91895 3.55311 4.89179 3.5489V3.44002C4.89179 3.41064 4.87985 3.38394 4.86042 3.36451C4.84098 3.34508 4.81453 3.33325 4.78491 3.33325C4.7259 3.33325 4.67802 3.38113 4.67802 3.44002V3.54901C4.65121 3.55346 4.62464 3.55955 4.59876 3.56716C4.53824 3.54925 4.47561 3.54012 4.41192 3.54012C4.22074 3.54012 4.0394 3.623 3.91437 3.76723C3.81029 3.88688 3.75293 4.04036 3.75293 4.19911C3.75293 4.25823 3.80069 4.30599 3.85982 4.30599H4.08073C4.09068 4.30529 4.10063 4.30482 4.11081 4.30482H5.459C5.46918 4.30482 5.47913 4.30529 5.48909 4.30599H5.71C5.76912 4.30599 5.81688 4.25823 5.81688 4.19922C5.81688 4.04024 5.75952 3.88688 5.65591 3.7677ZM4.13481 4.09234H3.9797C3.99632 4.02444 4.02922 3.96087 4.07569 3.90713C4.13107 3.84321 4.20295 3.79732 4.28232 3.7732C4.2047 3.86464 4.15401 3.97515 4.13481 4.09234ZM4.67802 4.09234H4.35268C4.36931 4.02444 4.4022 3.96087 4.44868 3.90713C4.50944 3.83712 4.58975 3.78866 4.67802 3.76676V4.09234ZM4.89179 4.09234V3.76665C4.96988 3.78573 5.04141 3.82588 5.09971 3.8843C5.10732 3.89191 5.11458 3.89952 5.12125 3.90737C5.16784 3.96087 5.20051 4.02444 5.21713 4.09234H4.89179ZM5.435 4.09234C5.4158 3.97468 5.36487 3.86393 5.28714 3.77273C5.35644 3.79369 5.42013 3.8315 5.4727 3.8843C5.48042 3.89191 5.48756 3.89952 5.49424 3.90737C5.54083 3.96087 5.57349 4.02444 5.59012 4.09234H5.435Z" fill="#EF4444"/>
<path d="M4.78493 4.51855V6.14221H3.3877V4.78231C3.3877 4.63668 3.50582 4.51855 3.65146 4.51855H4.78493Z" fill="#EF4444"/>
<path d="M6.18239 4.78231V6.14221H4.78516V4.51855H5.91863C6.06427 4.51855 6.18239 4.63668 6.18239 4.78231Z" fill="#F5F5F5"/>
<path d="M6.18239 6.14209V6.60265C6.18239 7.30495 5.66389 7.88656 4.98886 7.9849C4.92236 7.99473 4.85446 7.99988 4.78516 7.99988V6.14209H6.18239Z" fill="#EF4444"/>
<path d="M3.3877 6.14209V6.60265C3.3877 7.30495 3.9062 7.88656 4.58123 7.9849C4.64773 7.99473 4.71563 7.99988 4.78493 7.99988V6.14209H3.3877Z" fill="#EF4444"/>
<path d="M5.45033 7.39019C5.4323 7.39019 5.41404 7.38891 5.39625 7.38621C5.21549 7.35987 5.0791 7.20195 5.0791 7.01896V6.62678C5.0791 6.55677 5.13611 6.49976 5.20612 6.49976H5.69442C5.76443 6.49976 5.82145 6.55677 5.82145 6.62678V7.01896C5.82145 7.20195 5.68506 7.35987 5.50418 7.38621C5.48639 7.38879 5.46824 7.39019 5.45022 7.39019H5.45033ZM5.21959 6.64024V7.01896C5.21959 7.13276 5.30423 7.23086 5.41662 7.24725C5.43909 7.25053 5.46181 7.25053 5.48393 7.24725C5.59632 7.23086 5.68108 7.13276 5.68108 7.01896V6.64024H5.21959Z" fill="#FBBF24"/>
<path d="M4.25188 4.94385H3.99058C3.90194 4.94385 3.83008 5.01571 3.83008 5.10435V5.59722C3.83008 5.68586 3.90194 5.75772 3.99058 5.75772H4.25188C4.34053 5.75772 4.41239 5.68586 4.41239 5.59722V5.10435C4.41239 5.01571 4.34053 4.94385 4.25188 4.94385Z" fill="#FBBF24"/>
<path d="M5.61419 4.94385H5.35289C5.26424 4.94385 5.19238 5.01571 5.19238 5.10435V5.59722C5.19238 5.68586 5.26424 5.75772 5.35289 5.75772H5.61419C5.70283 5.75772 5.77469 5.68586 5.77469 5.59722V5.10435C5.77469 5.01571 5.70283 4.94385 5.61419 4.94385Z" fill="#EF4444"/>
<path d="M6.8327 4.58891C6.78915 4.54548 6.72909 4.51855 6.66271 4.51855C6.52995 4.51855 6.42236 4.62614 6.42236 4.7589V7.7401C6.42236 7.87286 6.52995 7.98045 6.66271 7.98045C6.79547 7.98045 6.90305 7.87286 6.90305 7.7401V4.7589C6.90305 4.69252 6.87613 4.63246 6.8327 4.58891Z" fill="#F5F5F5"/>
<path d="M3.07684 4.58891C3.03329 4.54548 2.97323 4.51855 2.90685 4.51855C2.77409 4.51855 2.6665 4.62614 2.6665 4.7589V7.7401C2.6665 7.87286 2.77409 7.98045 2.90685 7.98045C3.03961 7.98045 3.1472 7.87286 3.1472 7.7401V4.7589C3.1472 4.69252 3.12027 4.63246 3.07684 4.58891Z" fill="#F5F5F5"/>
<path d="M2.89666 5.68188H3.38754V6.14221H2.89666C2.76964 6.14221 2.6665 6.03907 2.6665 5.91205C2.6665 5.78502 2.76964 5.68188 2.89666 5.68188Z" fill="#EF4444"/>
<path d="M6.18213 5.68188H6.67301C6.80003 5.68188 6.90317 5.78502 6.90317 5.91205C6.90317 6.03907 6.80003 6.14221 6.67301 6.14221H6.18213V5.68188Z" fill="#EF4444"/>
<path d="M3.74441 6.14209H3.7443C3.68003 6.14209 3.62793 6.19419 3.62793 6.25846V7.09317C3.62793 7.15744 3.68003 7.20954 3.7443 7.20954H3.74441C3.80868 7.20954 3.86078 7.15744 3.86078 7.09317V6.25846C3.86078 6.19419 3.80868 6.14209 3.74441 6.14209Z" fill="#FBBF24"/>
<path d="M4.20291 6.14209H4.20279C4.13853 6.14209 4.08643 6.19419 4.08643 6.25846V7.46581C4.08643 7.53008 4.13853 7.58218 4.20279 7.58218H4.20291C4.26718 7.58218 4.31928 7.53008 4.31928 7.46581V6.25846C4.31928 6.19419 4.26718 6.14209 4.20291 6.14209Z" fill="#FBBF24"/>
<path d="M4.66141 6.14209H4.66129C4.59702 6.14209 4.54492 6.19419 4.54492 6.25846V7.73917C4.54492 7.80343 4.59702 7.85553 4.66129 7.85553H4.66141C4.72568 7.85553 4.77778 7.80343 4.77778 7.73917V6.25846C4.77778 6.19419 4.72568 6.14209 4.66141 6.14209Z" fill="#FBBF24"/>
<path d="M4.78501 6.42281C4.93999 6.42281 5.06563 6.29717 5.06563 6.14219C5.06563 5.98721 4.93999 5.86157 4.78501 5.86157C4.63003 5.86157 4.50439 5.98721 4.50439 6.14219C4.50439 6.29717 4.63003 6.42281 4.78501 6.42281Z" fill="#3B82F6"/>
</g>
<defs>
<clipPath>
<rect width="12" height="12" rx="2.66667" fill="white"/>
</clipPath>
</defs>
</symbol>

</svg>
